                                                                        S      1
,,16Hbuild-button-lid,16Hbuild-button-lid,7Hunknown,7Hunknown,32,38,7,  G      1
99,15,,1.,2,2HMM,1,0.08,15H20190309.190656,0.01,10000.,12HGaryGJohnson, G      2
7Hunknown,11,0,15H20190309.193526;                                      G      3
     186       1                                                00000000D      1
     186             -99       1       0                               0D      2
     514       2                                                00010000D      3
     514                       1       1                               0D      4
     510       3                                                00010000D      5
     510             -99       1       1                               0D      6
     510       4                                                00010000D      7
     510             -99       1       1                               0D      8
     510       5                                                00010000D      9
     510             -99       1       1                               0D     10
     510       6                                                00010000D     11
     510             -99       1       1                               0D     12
     510       7                                                00010000D     13
     510             -99       1       1                               0D     14
     510       8                                                00010000D     15
     510             -99       1       1                               0D     16
     510       9                                                00010000D     17
     510             -99       1       1                               0D     18
     510      10                                                00010000D     19
     510             -99       1       1                               0D     20
     508      11                                                00010000D     21
     508                       1       1                               0D     22
     508      12                                                00010000D     23
     508                       1       1                               0D     24
     508      13                                                00010000D     25
     508                       1       1                               0D     26
     508      14                                                00010000D     27
     508                       1       1                               0D     28
     508      15                                                00010000D     29
     508                       1       1                               0D     30
     508      16                                                00010000D     31
     508                       1       1                               0D     32
     508      17                                                00010000D     33
     508                       1       1                               0D     34
     508      18                                                00010000D     35
     508                       1       1                               0D     36
     508      19                                                00010000D     37
     508                       1       1                               0D     38
     508      20                                                00010000D     39
     508                       1       1                               0D     40
     508      21                                                00010000D     41
     508                       1       1                               0D     42
     508      22                                                00010000D     43
     508                       1       1                               0D     44
     126      23                                                00010000D     45
     126       0              11       0                               0D     46
     126      34                                                00010000D     47
     126       0               4       0                               0D     48
     126      38                                                00010000D     49
     126       0               9       0                               0D     50
     126      47                                                00010000D     51
     126       0              11       0                               0D     52
     126      58                                                00010000D     53
     126       0               4       0                               0D     54
     126      62                                                00010000D     55
     126       0               9       0                               0D     56
     126      71                                                00010000D     57
     126       0               9       0                               0D     58
     126      80                                                00010000D     59
     126       0               9       0                               0D     60
     126      89                                                00010000D     61
     126       0               2       0                               0D     62
     126      91                                                00010000D     63
     126       0              10       0                               0D     64
     126     101                                                00010000D     65
     126       0               2       0                               0D     66
     126     103                                                00010000D     67
     126       0              10       0                               0D     68
     128     113                                                00010000D     69
     128       0     -99      15       0                               0D     70
     128     128                                                00010000D     71
     128       0     -99       4       0                               0D     72
     128     132                                                00010000D     73
     128       0     -99      15       0                               0D     74
     128     147                                                00010000D     75
     128       0     -99       3       0                               0D     76
     128     150                                                00010000D     77
     128       0     -99      12       0                               0D     78
     128     162                                                00010000D     79
     128       0     -99      11       0                               0D     80
     128     173                                                00010000D     81
     128       0     -99       3       0                               0D     82
     128     176                                                00010000D     83
     128       0     -99       3       0                               0D     84
     502     179                                                00010000D     85
     502                       5       1                               0D     86
     504     184                                                00010001D     87
     504                       3       1                               0D     88
     406     187                                                00000000D     89
     406                       1      15                               0D     90
     406     188                                                00000000D     91
     406                       1      15                               0D     92
     408     189                                                00000001D     93
     408       0               1       0                               0D     94
     308     190                                                00010200D     95
     308       0               1       0                               0D     96
     314     191                                                00000200D     97
     314                       1       0                               0D     98
     314     192                                                00000200D     99
     314                       2       0                               0D    100
186,3,1,0,0,1,91;                                                      1P      1
514,8,5,1,7,1,9,1,11,1,13,1,15,1,17,1,19,1;                            3P      2
510,69,1,1,21;                                                         5P      3
510,71,2,1,23,25;                                                      7P      4
510,73,1,1,27;                                                         9P      5
510,75,2,1,29,31;                                                     11P      6
510,77,1,1,33;                                                        13P      7
510,79,1,1,35;                                                        15P      8
510,81,2,1,37,39;                                                     17P      9
510,83,2,1,41,43;                                                     19P     10
508,4,0,87,1,0,0,0,87,2,1,0,0,87,3,0,0,0,87,2,0,0;                    21P     11
508,1,0,87,1,1,0;                                                     23P     12
508,1,0,87,4,1,0;                                                     25P     13
508,4,0,87,4,0,0,0,87,5,1,0,0,87,6,0,0,0,87,5,0,0;                    27P     14
508,1,0,87,7,1,0;                                                     29P     15
508,1,0,87,3,1,0;                                                     31P     16
508,4,0,87,8,0,0,0,87,9,1,0,0,87,10,0,0,0,87,9,0,0;                   33P     17
508,4,0,87,7,0,0,0,87,11,1,0,0,87,12,0,0,0,87,11,0,0;                 35P     18
508,1,0,87,12,1,0;                                                    37P     19
508,1,0,87,10,1,0;                                                    39P     20
508,1,0,87,6,1,0;                                                     41P     21
508,1,0,87,8,1,0;                                                     43P     22
126,8,2,0,1,0,0,-3.14159265358979,-3.14159265358979,                  45P     23
-3.14159265358979,-1.5707963267949,-1.5707963267949,0.,0.,            45P     24
1.5707963267949,1.5707963267949,3.14159265358979,                     45P     25
3.14159265358979,3.14159265358979,1.,0.707106781186548,1.,            45P     26
0.707106781186548,1.,0.707106781186548,1.,0.707106781186548,1.,       45P     27
-33.,4.04133443718627D-15,-0.999999999999996,-33.,33.,                45P     28
-0.999999999999996,2.02066721859313D-15,33.,-0.999999999999996,       45P     29
33.,33.,-0.999999999999996,33.,0.,-0.999999999999996,33.,-33.,        45P     30
-0.999999999999996,2.02066721859313D-15,-33.,-0.999999999999996,      45P     31
-33.,-33.,-0.999999999999996,-33.,-4.04133443718627D-15,              45P     32
-0.999999999999996,-3.14159265358979,3.14159265358979,0.,0.,0.;       45P     33
126,1,1,0,0,1,0,-0.393939393939394,-0.393939393939394,                47P     34
-0.212121212121212,-0.212121212121212,1.,1.,-33.,0.,                  47P     35
-0.999999999999996,-33.,0.,5.,-0.393939393939394,                     47P     36
-0.212121212121212,0.,0.,0.;                                          47P     37
126,8,2,0,1,0,0,-3.14159265358979,-3.14159265358979,                  49P     38
-3.14159265358979,-1.5707963267949,-1.5707963267949,0.,0.,            49P     39
1.5707963267949,1.5707963267949,3.14159265358979,                     49P     40
3.14159265358979,3.14159265358979,1.,0.707106781186548,1.,            49P     41
0.707106781186548,1.,0.707106781186548,1.,0.707106781186548,1.,       49P     42
-33.,-4.04133443718627D-15,5.,-33.,-33.,5.,2.02066721859313D-15,      49P     43
-33.,5.,33.,-33.,5.,33.,0.,5.,33.,33.,5.,2.02066721859313D-15,        49P     44
33.,5.,-33.,33.,5.,-33.,4.04133443718627D-15,5.,                      49P     45
-3.14159265358979,3.14159265358979,0.,0.,0.;                          49P     46
126,8,2,0,1,0,0,-3.14159265358979,-3.14159265358979,                  51P     47
-3.14159265358979,-1.5707963267949,-1.5707963267949,0.,0.,            51P     48
1.5707963267949,1.5707963267949,3.14159265358979,                     51P     49
3.14159265358979,3.14159265358979,1.,0.707106781186547,1.,            51P     50
0.707106781186547,1.,0.707106781186547,1.,0.707106781186547,1.,       51P     51
-31.,-3.7964050773568D-15,-0.999999999999996,-31.,-31.,               51P     52
-0.999999999999996,1.8982025386784D-15,-31.,-0.999999999999996,       51P     53
31.,-31.,-0.999999999999996,31.,0.,-0.999999999999996,31.,31.,        51P     54
-0.999999999999996,1.8982025386784D-15,31.,-0.999999999999996,        51P     55
-31.,31.,-0.999999999999996,-31.,3.7964050773568D-15,                 51P     56
-0.999999999999996,-3.14159265358979,3.14159265358979,0.,0.,0.;       51P     57
126,1,1,0,0,1,0,-0.419354838709677,-0.419354838709677,                53P     58
-0.096774193548387,-0.096774193548387,1.,1.,-31.,0.,                  53P     59
-0.999999999999996,-31.,0.,9.,-0.419354838709677,                     53P     60
-0.096774193548387,0.,0.,0.;                                          53P     61
126,8,2,0,1,0,0,-3.14159265358979,-3.14159265358979,                  55P     62
-3.14159265358979,-1.5707963267949,-1.5707963267949,0.,0.,            55P     63
1.5707963267949,1.5707963267949,3.14159265358979,                     55P     64
3.14159265358979,3.14159265358979,1.,0.707106781186547,1.,            55P     65
0.707106781186547,1.,0.707106781186547,1.,0.707106781186547,1.,       55P     66
-31.,3.7964050773568D-15,9.,-31.,31.,9.,1.8982025386784D-15,31.,      55P     67
9.,31.,31.,9.,31.,0.,9.,31.,-31.,9.,1.8982025386784D-15,-31.,9.,      55P     68
-31.,-31.,9.,-31.,-3.7964050773568D-15,9.,-3.14159265358979,          55P     69
3.14159265358979,0.,0.,0.;                                            55P     70
126,8,2,0,1,0,0,-3.14159265358979,-3.14159265358979,                  57P     71
-3.14159265358979,-1.5707963267949,-1.5707963267949,0.,0.,            57P     72
1.5707963267949,1.5707963267949,3.14159265358979,                     57P     73
3.14159265358979,3.14159265358979,1.,0.707106781186547,1.,            57P     74
0.707106781186547,1.,0.707106781186547,1.,0.707106781186547,1.,       57P     75
-35.,4.28626379701574D-15,5.,-35.,35.,5.,2.14313189850787D-15,        57P     76
35.,5.,35.,35.,5.,35.,0.,5.,35.,-35.,5.,2.14313189850787D-15,         57P     77
-35.,5.,-35.,-35.,5.,-35.,-4.28626379701574D-15,5.,                   57P     78
-3.14159265358979,3.14159265358979,0.,0.,0.;                          57P     79
126,8,2,0,1,0,0,-3.14159265358979,-3.14159265358979,                  59P     80
-3.14159265358979,-1.5707963267949,-1.5707963267949,0.,0.,            59P     81
1.5707963267949,1.5707963267949,3.14159265358979,                     59P     82
3.14159265358979,3.14159265358979,1.,0.707106781186548,1.,            59P     83
0.707106781186547,1.,0.707106781186547,1.,0.707106781186548,1.,       59P     84
-11.,-1.34711147906209D-15,9.,-11.,-11.,9.,6.73555739531044D-16,      59P     85
-11.,9.,11.,-11.,9.,11.,0.,9.,11.,11.,9.,6.73555739531044D-16,        59P     86
11.,9.,-11.,11.,9.,-11.,1.34711147906209D-15,9.,                      59P     87
-3.14159265358979,3.14159265358979,0.,0.,0.;                          59P     88
126,1,1,0,0,1,0,-0.272727272727273,-0.272727272727273,0.,0.,1.,       61P     89
1.,-11.,0.,9.,-11.,0.,12.,-0.272727272727273,0.,0.,0.,0.;             61P     90
126,8,2,0,1,0,0,-3.14159265358979,-3.14159265358979,                  63P     91
-3.14159265358979,-1.5707963267949,-1.5707963267949,0.,0.,            63P     92
1.5707963267949,1.5707963267949,3.14159265358979,                     63P     93
3.14159265358979,3.14159265358979,1.,0.707106781186548,1.,            63P     94
0.707106781186547,1.,0.707106781186547,1.,0.707106781186548,1.,       63P     95
-11.,1.34711147906209D-15,12.,-11.,11.,12.,6.73555739531044D-16,      63P     96
11.,12.,11.,11.,12.,11.,0.,12.,11.,-11.,12.,                          63P     97
6.73555739531044D-16,-11.,12.,-11.,-11.,12.,-11.,                     63P     98
-1.34711147906209D-15,12.,-3.14159265358979,3.14159265358979,0.,      63P     99
0.,0.;                                                                63P    100
126,1,1,0,0,1,0,-0.2,-0.2,0.,0.,1.,1.,-35.,0.,5.,-35.,0.,12.,         65P    101
-0.2,0.,0.,0.,0.;                                                     65P    102
126,8,2,0,1,0,0,-3.14159265358979,-3.14159265358979,                  67P    103
-3.14159265358979,-1.5707963267949,-1.5707963267949,0.,0.,            67P    104
1.5707963267949,1.5707963267949,3.14159265358979,                     67P    105
3.14159265358979,3.14159265358979,1.,0.707106781186547,1.,            67P    106
0.707106781186547,1.,0.707106781186547,1.,0.707106781186547,1.,       67P    107
-35.,-4.28626379701574D-15,12.,-35.,-35.,12.,                         67P    108
2.14313189850787D-15,-35.,12.,35.,-35.,12.,35.,0.,12.,35.,35.,        67P    109
12.,2.14313189850787D-15,35.,12.,-35.,35.,12.,-35.,                   67P    110
4.28626379701574D-15,12.,-3.14159265358979,3.14159265358979,0.,       67P    111
0.,0.;                                                                67P    112
128,1,8,1,2,0,1,0,0,1,0.212121212121212,0.212121212121212,            69P    113
0.393939393939394,0.393939393939394,-3.14159265358979,                69P    114
-3.14159265358979,-3.14159265358979,-1.5707963267949,                 69P    115
-1.5707963267949,0.,0.,1.5707963267949,1.5707963267949,               69P    116
3.14159265358979,3.14159265358979,3.14159265358979,1.,1.,             69P    117
0.707106781186548,0.707106781186548,1.,1.,0.707106781186548,          69P    118
0.707106781186548,1.,1.,0.707106781186548,0.707106781186548,1.,       69P    119
1.,0.707106781186548,0.707106781186548,1.,1.,-33.,0.,                 69P    120
-0.999999999999996,-33.,0.,5.,-33.,33.,-0.999999999999996,-33.,       69P    121
33.,5.,0.,33.,-0.999999999999996,0.,33.,5.,33.,33.,                   69P    122
-0.999999999999996,33.,33.,5.,33.,0.,-0.999999999999996,33.,0.,       69P    123
5.,33.,-33.,-0.999999999999996,33.,-33.,5.,0.,-33.,                   69P    124
-0.999999999999996,0.,-33.,5.,-33.,-33.,-0.999999999999996,-33.,      69P    125
-33.,5.,-33.,0.,-0.999999999999996,-33.,0.,5.,0.212121212121212,      69P    126
0.393939393939394,-3.14159265358979,3.14159265358979;                 69P    127
128,1,1,1,1,0,0,1,0,0,-3.301,-3.301,3.301,3.301,-3.301,-3.301,        71P    128
3.301,3.301,1.,1.,1.,1.,33.01,-33.01,-0.999999999999996,-33.01,       71P    129
-33.01,-0.999999999999996,33.01,33.01,-0.999999999999996,-33.01,      71P    130
33.01,-0.999999999999996,-3.301,3.301,-3.301,3.301;                   71P    131
128,1,8,1,2,0,1,0,0,1,0.096774193548387,0.096774193548387,            73P    132
0.419354838709677,0.419354838709677,-3.14159265358979,                73P    133
-3.14159265358979,-3.14159265358979,-1.5707963267949,                 73P    134
-1.5707963267949,0.,0.,1.5707963267949,1.5707963267949,               73P    135
3.14159265358979,3.14159265358979,3.14159265358979,1.,1.,             73P    136
0.707106781186548,0.707106781186548,1.,1.,0.707106781186548,          73P    137
0.707106781186548,1.,1.,0.707106781186548,0.707106781186548,1.,       73P    138
1.,0.707106781186548,0.707106781186548,1.,1.,-31.,0.,9.,-31.,0.,      73P    139
-0.999999999999996,-31.,31.,9.,-31.,31.,-0.999999999999996,0.,        73P    140
31.,9.,0.,31.,-0.999999999999996,31.,31.,9.,31.,31.,                  73P    141
-0.999999999999996,31.,0.,9.,31.,0.,-0.999999999999996,31.,-31.,      73P    142
9.,31.,-31.,-0.999999999999996,0.,-31.,9.,0.,-31.,                    73P    143
-0.999999999999996,-31.,-31.,9.,-31.,-31.,-0.999999999999996,         73P    144
-31.,0.,9.,-31.,0.,-0.999999999999996,0.096774193548387,              73P    145
0.419354838709677,-3.14159265358979,3.14159265358979;                 73P    146
128,1,1,1,1,0,0,1,0,0,-3.501,-3.501,3.501,3.501,-3.501,-3.501,        75P    147
3.501,3.501,1.,1.,1.,1.,35.01,-35.01,5.,-35.01,-35.01,5.,35.01,       75P    148
35.01,5.,-35.01,35.01,5.,-3.501,3.501,-3.501,3.501;                   75P    149
128,1,8,1,2,0,1,0,0,1,0.,0.,0.272727272727273,0.272727272727273,      77P    150
-3.14159265358979,-3.14159265358979,-3.14159265358979,                77P    151
-1.5707963267949,-1.5707963267949,0.,0.,1.5707963267949,              77P    152
1.5707963267949,3.14159265358979,3.14159265358979,                    77P    153
3.14159265358979,1.,1.,0.707106781186548,0.707106781186548,1.,        77P    154
1.,0.707106781186548,0.707106781186548,1.,1.,0.707106781186548,       77P    155
0.707106781186548,1.,1.,0.707106781186548,0.707106781186548,1.,       77P    156
1.,-11.,0.,12.,-11.,0.,9.,-11.,11.,12.,-11.,11.,9.,0.,11.,12.,        77P    157
0.,11.,9.,11.,11.,12.,11.,11.,9.,11.,0.,12.,11.,0.,9.,11.,-11.,       77P    158
12.,11.,-11.,9.,0.,-11.,12.,0.,-11.,9.,-11.,-11.,12.,-11.,-11.,       77P    159
9.,-11.,0.,12.,-11.,0.,9.,0.,0.272727272727273,                       77P    160
-3.14159265358979,3.14159265358979;                                   77P    161
128,1,8,1,2,0,1,0,0,1,0.,0.,0.2,0.2,-3.14159265358979,                79P    162
-3.14159265358979,-3.14159265358979,-1.5707963267949,                 79P    163
-1.5707963267949,0.,0.,1.5707963267949,1.5707963267949,               79P    164
3.14159265358979,3.14159265358979,3.14159265358979,1.,1.,             79P    165
0.707106781186548,0.707106781186548,1.,1.,0.707106781186548,          79P    166
0.707106781186548,1.,1.,0.707106781186548,0.707106781186548,1.,       79P    167
1.,0.707106781186548,0.707106781186548,1.,1.,-35.,0.,5.,-35.,0.,      79P    168
12.,-35.,35.,5.,-35.,35.,12.,0.,35.,5.,0.,35.,12.,35.,35.,5.,         79P    169
35.,35.,12.,35.,0.,5.,35.,0.,12.,35.,-35.,5.,35.,-35.,12.,0.,         79P    170
-35.,5.,0.,-35.,12.,-35.,-35.,5.,-35.,-35.,12.,-35.,0.,5.,-35.,       79P    171
0.,12.,0.,0.2,-3.14159265358979,3.14159265358979;                     79P    172
128,1,1,1,1,0,0,1,0,0,-3.501,-3.501,3.501,3.501,-3.501,-3.501,        81P    173
3.501,3.501,1.,1.,1.,1.,-35.01,-35.01,12.,35.01,-35.01,12.,           81P    174
-35.01,35.01,12.,35.01,35.01,12.,-3.501,3.501,-3.501,3.501;           81P    175
128,1,1,1,1,0,0,1,0,0,-3.101,-3.101,3.101,3.101,-3.101,-3.101,        83P    176
3.101,3.101,1.,1.,1.,1.,31.01,-31.01,9.,-31.01,-31.01,9.,31.01,       83P    177
31.01,9.,-31.01,31.01,9.,-3.101,3.101,-3.101,3.101;                   83P    178
502,8,-33.,-4.04133443718627D-15,-0.999999999999996,-33.,             85P    179
-4.04133443718627D-15,5.,-31.,-3.7964050773568D-15,                   85P    180
-0.999999999999996,-31.,3.7964050773568D-15,9.,-35.,                  85P    181
-4.28626379701574D-15,5.,-11.,-1.34711147906209D-15,9.,-11.,          85P    182
-1.34711147906209D-15,12.,-35.,-4.28626379701574D-15,12.;             85P    183
504,12,45,85,1,85,1,47,85,1,85,2,49,85,2,85,2,51,85,3,85,3,53,        87P    184
85,3,85,4,55,85,4,85,4,57,85,5,85,5,59,85,6,85,6,61,85,6,85,7,        87P    185
63,85,7,85,7,65,85,5,85,8,67,85,8,85,8;                               87P    186
406,1,7Hparts:1;                                                      89P    187
406,1,3Hlid;                                                          91P    188
408,95,0.,0.,0.,1.,0,1,89;                                            93P    189
308,0,5Hparts,0;                                                      95P    190
314,100.,0.,0.,11HABS (White);                                        97P    191
314,62.7450980392157,62.7450980392157,62.7450980392157,13HSteel       99P    192
- Satin;                                                              99P    193
S      1G      3D    100P    193                                        T      1
