                                                                        S      1
,,16Hbuild-button-lid,16Hbuild-button-lid,7Hunknown,7Hunknown,32,38,7,  G      1
99,15,,1.,2,2HMM,1,0.08,15H20190309.192408,0.01,10000.,12HGaryGJohnson, G      2
7Hunknown,11,0,15H20190310.002235;                                      G      3
     186       1                                                00000000D      1
     186             -91       1       0                               0D      2
     514       2                                                00010000D      3
     514                       1       1                               0D      4
     510       3                                                00010000D      5
     510             -91       1       1                               0D      6
     510       4                                                00010000D      7
     510             -91       1       1                               0D      8
     510       5                                                00010000D      9
     510             -91       1       1                               0D     10
     510       6                                                00010000D     11
     510             -91       1       1                               0D     12
     510       7                                                00010000D     13
     510             -91       1       1                               0D     14
     510       8                                                00010000D     15
     510             -91       1       1                               0D     16
     510       9                                                00010000D     17
     510             -91       1       1                               0D     18
     510      10                                                00010000D     19
     510             -91       1       1                               0D     20
     508      11                                                00010000D     21
     508                       1       1                               0D     22
     508      12                                                00010000D     23
     508                       1       1                               0D     24
     508      13                                                00010000D     25
     508                       1       1                               0D     26
     508      14                                                00010000D     27
     508                       1       1                               0D     28
     508      15                                                00010000D     29
     508                       1       1                               0D     30
     508      16                                                00010000D     31
     508                       1       1                               0D     32
     508      17                                                00010000D     33
     508                       1       1                               0D     34
     508      18                                                00010000D     35
     508                       1       1                               0D     36
     508      19                                                00010000D     37
     508                       1       1                               0D     38
     508      20                                                00010000D     39
     508                       1       1                               0D     40
     508      21                                                00010000D     41
     508                       1       1                               0D     42
     508      22                                                00010000D     43
     508                       1       1                               0D     44
     126      23                                                00010000D     45
     126       0              15       0                               0D     46
     126      38                                                00010000D     47
     126       0               4       0                               0D     48
     126      42                                                00010000D     49
     126       0              15       0                               0D     50
     126      57                                                00010000D     51
     126       0              15       0                               0D     52
     126      72                                                00010000D     53
     126       0               5       0                               0D     54
     126      77                                                00010000D     55
     126       0              15       0                               0D     56
     126      92                                                00010000D     57
     126       0              15       0                               0D     58
     126     107                                                00010000D     59
     126       0              15       0                               0D     60
     126     122                                                00010000D     61
     126       0               5       0                               0D     62
     126     127                                                00010000D     63
     126       0              15       0                               0D     64
     126     142                                                00010000D     65
     126       0               4       0                               0D     66
     126     146                                                00010000D     67
     126       0              15       0                               0D     68
     128     161                                                00010000D     69
     128       0     -91      26       0                               0D     70
     128     187                                                00010000D     71
     128       0     -91       6       0                               0D     72
     128     193                                                00010000D     73
     128       0     -91      27       0                               0D     74
     128     220                                                00010000D     75
     128       0     -91       6       0                               0D     76
     128     226                                                00010000D     77
     128       0     -91      28       0                               0D     78
     128     254                                                00010000D     79
     128       0     -91      27       0                               0D     80
     128     281                                                00010000D     81
     128       0     -91       6       0                               0D     82
     128     287                                                00010000D     83
     128       0     -91       6       0                               0D     84
     502     293                                                00010000D     85
     502                       8       1                               0D     86
     504     301                                                00010001D     87
     504                       3       1                               0D     88
     406     304                                                00000000D     89
     406                       1      15                               0D     90
     314     305                                                00000200D     91
     314                       2       0                               0D     92
186,3,1,0,0,1,89;                                                      1P      1
514,8,5,1,7,1,9,1,11,1,13,1,15,1,17,1,19,1;                            3P      2
510,69,1,1,21;                                                         5P      3
510,71,2,1,23,25;                                                      7P      4
510,73,1,1,27;                                                         9P      5
510,75,2,1,29,31;                                                     11P      6
510,77,1,1,33;                                                        13P      7
510,79,1,1,35;                                                        15P      8
510,81,2,1,37,39;                                                     17P      9
510,83,2,1,41,43;                                                     19P     10
508,4,0,87,1,0,0,0,87,2,1,0,0,87,3,0,0,0,87,2,0,0;                    21P     11
508,1,0,87,1,1,0;                                                     23P     12
508,1,0,87,4,1,0;                                                     25P     13
508,4,0,87,4,0,0,0,87,5,1,0,0,87,6,0,0,0,87,5,0,0;                    27P     14
508,1,0,87,7,1,0;                                                     29P     15
508,1,0,87,3,1,0;                                                     31P     16
508,4,0,87,8,0,0,0,87,9,1,0,0,87,10,0,0,0,87,9,0,0;                   33P     17
508,4,0,87,7,0,0,0,87,11,1,0,0,87,12,0,0,0,87,11,0,0;                 35P     18
508,1,0,87,12,1,0;                                                    37P     19
508,1,0,87,10,1,0;                                                    39P     20
508,1,0,87,6,1,0;                                                     41P     21
508,1,0,87,8,1,0;                                                     43P     22
126,8,2,0,1,0,0,-3.14159265358979,-3.14159265358979,                  45P     23
-3.14159265358979,-1.5707963267949,-1.5707963267949,0.,0.,            45P     24
1.5707963267949,1.5707963267949,3.14159265358979,                     45P     25
3.14159265358979,3.14159265358979,1.,0.707106781186548,1.,            45P     26
0.707106781186549,1.,0.707106781186549,1.,0.707106781186548,1.,       45P     27
-25.5752882583229,12.4945522454196,-0.930159496257481,                45P     28
-25.5752882583229,44.4945522454196,-0.930159496257481,                45P     29
-57.5752882583229,44.4945522454196,-0.930159496257485,                45P     30
-89.5752882583229,44.4945522454196,-0.930159496257489,                45P     31
-89.5752882583229,12.4945522454196,-0.930159496257489,                45P     32
-89.5752882583229,-19.5054477545804,-0.930159496257489,               45P     33
-57.5752882583229,-19.5054477545804,-0.930159496257485,               45P     34
-25.5752882583229,-19.5054477545804,-0.930159496257481,               45P     35
-25.5752882583229,12.4945522454196,-0.930159496257481,                45P     36
-3.14159265358979,3.14159265358979,0.,0.,0.;                          45P     37
126,1,1,0,0,1,0,-0.40625,-0.40625,-0.21875,-0.21875,1.,1.,            47P     38
-25.5752882583229,12.4945522454196,-0.930159496257481,                47P     39
-25.5752882583229,12.4945522454196,-6.93015949625748,-0.40625,        47P     40
-0.21875,0.,0.,0.;                                                    47P     41
126,8,2,0,1,0,0,-3.14159265358979,-3.14159265358979,                  49P     42
-3.14159265358979,-1.5707963267949,-1.5707963267949,0.,0.,            49P     43
1.5707963267949,1.5707963267949,3.14159265358979,                     49P     44
3.14159265358979,3.14159265358979,1.,0.707106781186548,1.,            49P     45
0.707106781186549,1.,0.707106781186549,1.,0.707106781186548,1.,       49P     46
-25.5752882583229,12.4945522454196,-6.93015949625748,                 49P     47
-25.5752882583229,-19.5054477545804,-6.93015949625748,                49P     48
-57.5752882583229,-19.5054477545804,-6.93015949625748,                49P     49
-89.5752882583229,-19.5054477545804,-6.93015949625749,                49P     50
-89.5752882583229,12.4945522454196,-6.93015949625749,                 49P     51
-89.5752882583229,44.4945522454196,-6.93015949625749,                 49P     52
-57.5752882583229,44.4945522454196,-6.93015949625748,                 49P     53
-25.5752882583229,44.4945522454196,-6.93015949625748,                 49P     54
-25.5752882583229,12.4945522454196,-6.93015949625748,                 49P     55
-3.14159265358979,3.14159265358979,0.,0.,0.;                          49P     56
126,8,2,0,1,0,0,-3.14159265358979,-3.14159265358979,                  51P     57
-3.14159265358979,-1.5707963267949,-1.5707963267949,0.,0.,            51P     58
1.5707963267949,1.5707963267949,3.14159265358979,                     51P     59
3.14159265358979,3.14159265358979,1.,0.707106781186548,1.,            51P     60
0.707106781186548,1.,0.707106781186548,1.,0.707106781186548,1.,       51P     61
-27.5752882583229,12.4945522454196,-0.930159496257482,                51P     62
-27.5752882583229,-17.5054477545804,-0.930159496257482,               51P     63
-57.5752882583229,-17.5054477545804,-0.930159496257485,               51P     64
-87.5752882583229,-17.5054477545804,-0.930159496257489,               51P     65
-87.5752882583229,12.4945522454196,-0.930159496257489,                51P     66
-87.5752882583229,42.4945522454196,-0.930159496257489,                51P     67
-57.5752882583229,42.4945522454196,-0.930159496257485,                51P     68
-27.5752882583229,42.4945522454196,-0.930159496257482,                51P     69
-27.5752882583229,12.4945522454196,-0.930159496257482,                51P     70
-3.14159265358979,3.14159265358979,0.,0.,0.;                          51P     71
126,1,1,0,0,1,0,-0.433333333333333,-0.433333333333333,                53P     72
-0.0999999999999999,-0.0999999999999999,1.,1.,-27.5752882583229,      53P     73
12.4945522454196,-0.930159496257481,-27.5752882583229,                53P     74
12.4945522454196,-10.9301594962575,-0.433333333333333,                53P     75
-0.0999999999999999,0.,0.,0.;                                         53P     76
126,8,2,0,1,0,0,-3.14159265358979,-3.14159265358979,                  55P     77
-3.14159265358979,-1.5707963267949,-1.5707963267949,0.,0.,            55P     78
1.5707963267949,1.5707963267949,3.14159265358979,                     55P     79
3.14159265358979,3.14159265358979,1.,0.707106781186548,1.,            55P     80
0.707106781186548,1.,0.707106781186548,1.,0.707106781186548,1.,       55P     81
-27.5752882583229,12.4945522454196,-10.9301594962575,                 55P     82
-27.5752882583229,42.4945522454196,-10.9301594962575,                 55P     83
-57.5752882583229,42.4945522454196,-10.9301594962575,                 55P     84
-87.5752882583229,42.4945522454196,-10.9301594962575,                 55P     85
-87.5752882583229,12.4945522454196,-10.9301594962575,                 55P     86
-87.5752882583229,-17.5054477545804,-10.9301594962575,                55P     87
-57.5752882583229,-17.5054477545804,-10.9301594962575,                55P     88
-27.5752882583229,-17.5054477545804,-10.9301594962575,                55P     89
-27.5752882583229,12.4945522454196,-10.9301594962575,                 55P     90
-3.14159265358979,3.14159265358979,0.,0.,0.;                          55P     91
126,8,2,0,1,0,0,-3.14159265358979,-3.14159265358979,                  57P     92
-3.14159265358979,-1.5707963267949,-1.5707963267949,0.,0.,            57P     93
1.5707963267949,1.5707963267949,3.14159265358979,                     57P     94
3.14159265358979,3.14159265358979,1.,0.707106781186547,1.,            57P     95
0.707106781186547,1.,0.707106781186547,1.,0.707106781186547,1.,       57P     96
-22.5752882583229,12.4945522454196,-6.93015949625748,                 57P     97
-22.5752882583229,47.4945522454196,-6.93015949625748,                 57P     98
-57.5752882583229,47.4945522454196,-6.93015949625748,                 57P     99
-92.5752882583229,47.4945522454196,-6.93015949625749,                 57P    100
-92.5752882583229,12.4945522454196,-6.93015949625749,                 57P    101
-92.5752882583229,-22.5054477545804,-6.93015949625749,                57P    102
-57.5752882583229,-22.5054477545804,-6.93015949625748,                57P    103
-22.5752882583229,-22.5054477545804,-6.93015949625748,                57P    104
-22.5752882583229,12.4945522454196,-6.93015949625748,                 57P    105
-3.14159265358979,3.14159265358979,0.,0.,0.;                          57P    106
126,8,2,0,1,0,0,-3.14159265358979,-3.14159265358979,                  59P    107
-3.14159265358979,-1.5707963267949,-1.5707963267949,0.,0.,            59P    108
1.5707963267949,1.5707963267949,3.14159265358979,                     59P    109
3.14159265358979,3.14159265358979,1.,0.707106781186547,1.,            59P    110
0.707106781186547,1.,0.707106781186547,1.,0.707106781186547,1.,       59P    111
-46.0752882583229,12.4945522454196,-10.9301594962575,                 59P    112
-46.0752882583229,0.994552245419593,-10.9301594962575,                59P    113
-57.5752882583229,0.994552245419593,-10.9301594962575,                59P    114
-69.0752882583229,0.994552245419593,-10.9301594962575,                59P    115
-69.0752882583229,12.4945522454196,-10.9301594962575,                 59P    116
-69.0752882583229,23.9945522454196,-10.9301594962575,                 59P    117
-57.5752882583229,23.9945522454196,-10.9301594962575,                 59P    118
-46.0752882583229,23.9945522454196,-10.9301594962575,                 59P    119
-46.0752882583229,12.4945522454196,-10.9301594962575,                 59P    120
-3.14159265358979,3.14159265358979,0.,0.,0.;                          59P    121
126,1,1,0,0,1,0,-0.260869565217391,-0.260869565217391,                61P    122
7.06175852374658D-17,7.06175852374658D-17,1.,1.,                      61P    123
-46.0752882583229,12.4945522454196,-10.9301594962575,                 61P    124
-46.0752882583229,12.4945522454196,-13.9301594962575,                 61P    125
-0.260869565217391,7.06175852374658D-17,0.,0.,0.;                     61P    126
126,8,2,0,1,0,0,-3.14159265358979,-3.14159265358979,                  63P    127
-3.14159265358979,-1.5707963267949,-1.5707963267949,0.,0.,            63P    128
1.5707963267949,1.5707963267949,3.14159265358979,                     63P    129
3.14159265358979,3.14159265358979,1.,0.707106781186547,1.,            63P    130
0.707106781186547,1.,0.707106781186547,1.,0.707106781186547,1.,       63P    131
-46.0752882583229,12.4945522454196,-13.9301594962575,                 63P    132
-46.0752882583229,23.9945522454196,-13.9301594962575,                 63P    133
-57.5752882583229,23.9945522454196,-13.9301594962575,                 63P    134
-69.0752882583229,23.9945522454196,-13.9301594962575,                 63P    135
-69.0752882583229,12.4945522454196,-13.9301594962575,                 63P    136
-69.0752882583229,0.994552245419593,-13.9301594962575,                63P    137
-57.5752882583229,0.994552245419593,-13.9301594962575,                63P    138
-46.0752882583229,0.994552245419593,-13.9301594962575,                63P    139
-46.0752882583229,12.4945522454196,-13.9301594962575,                 63P    140
-3.14159265358979,3.14159265358979,0.,0.,0.;                          63P    141
126,1,1,0,0,1,0,-0.2,-0.2,4.41795147099686D-18,                       65P    142
4.41795147099686D-18,1.,1.,-22.5752882583229,12.4945522454196,        65P    143
-6.93015949625748,-22.5752882583229,12.4945522454196,                 65P    144
-13.9301594962575,-0.2,4.41795147099686D-18,0.,0.,0.;                 65P    145
126,8,2,0,1,0,0,-3.14159265358979,-3.14159265358979,                  67P    146
-3.14159265358979,-1.5707963267949,-1.5707963267949,0.,0.,            67P    147
1.5707963267949,1.5707963267949,3.14159265358979,                     67P    148
3.14159265358979,3.14159265358979,1.,0.707106781186547,1.,            67P    149
0.707106781186547,1.,0.707106781186547,1.,0.707106781186547,1.,       67P    150
-22.5752882583229,12.4945522454196,-13.9301594962575,                 67P    151
-22.5752882583229,-22.5054477545804,-13.9301594962575,                67P    152
-57.5752882583229,-22.5054477545804,-13.9301594962575,                67P    153
-92.5752882583229,-22.5054477545804,-13.9301594962575,                67P    154
-92.5752882583229,12.4945522454196,-13.9301594962575,                 67P    155
-92.5752882583229,47.4945522454196,-13.9301594962575,                 67P    156
-57.5752882583229,47.4945522454196,-13.9301594962575,                 67P    157
-22.5752882583229,47.4945522454196,-13.9301594962575,                 67P    158
-22.5752882583229,12.4945522454196,-13.9301594962575,                 67P    159
-3.14159265358979,3.14159265358979,0.,0.,0.;                          67P    160
128,1,8,1,2,0,1,0,0,1,0.21875,0.21875,0.40625,0.40625,                69P    161
-3.14159265358979,-3.14159265358979,-3.14159265358979,                69P    162
-1.5707963267949,-1.5707963267949,0.,0.,1.5707963267949,              69P    163
1.5707963267949,3.14159265358979,3.14159265358979,                    69P    164
3.14159265358979,1.,1.,0.707106781186548,0.707106781186548,1.,        69P    165
1.,0.707106781186548,0.707106781186548,1.,1.,0.707106781186548,       69P    166
0.707106781186548,1.,1.,0.707106781186548,0.707106781186548,1.,       69P    167
1.,-25.5752882583229,12.4945522454196,-0.930159496257481,             69P    168
-25.5752882583229,12.4945522454196,-6.93015949625748,                 69P    169
-25.5752882583229,44.4945522454196,-0.930159496257481,                69P    170
-25.5752882583229,44.4945522454196,-6.93015949625748,                 69P    171
-57.5752882583229,44.4945522454196,-0.930159496257486,                69P    172
-57.5752882583229,44.4945522454196,-6.93015949625748,                 69P    173
-89.5752882583229,44.4945522454196,-0.93015949625749,                 69P    174
-89.5752882583229,44.4945522454196,-6.93015949625749,                 69P    175
-89.5752882583229,12.4945522454196,-0.93015949625749,                 69P    176
-89.5752882583229,12.4945522454196,-6.93015949625749,                 69P    177
-89.5752882583229,-19.5054477545804,-0.93015949625749,                69P    178
-89.5752882583229,-19.5054477545804,-6.93015949625749,                69P    179
-57.5752882583229,-19.5054477545804,-0.930159496257486,               69P    180
-57.5752882583229,-19.5054477545804,-6.93015949625748,                69P    181
-25.5752882583229,-19.5054477545804,-0.930159496257481,               69P    182
-25.5752882583229,-19.5054477545804,-6.93015949625748,                69P    183
-25.5752882583229,12.4945522454196,-0.930159496257481,                69P    184
-25.5752882583229,12.4945522454196,-6.93015949625748,0.21875,         69P    185
0.40625,-3.14159265358979,3.14159265358979;                           69P    186
128,1,1,1,1,0,0,1,0,0,-3.201,-3.201,3.201,3.201,-3.201,-3.201,        71P    187
3.201,3.201,1.,1.,1.,1.,-89.5852882583229,-19.5154477545804,          71P    188
-0.930159496257489,-25.5652882583229,-19.5154477545804,               71P    189
-0.930159496257481,-89.5852882583229,44.5045522454196,                71P    190
-0.930159496257489,-25.5652882583229,44.5045522454196,                71P    191
-0.930159496257481,-3.201,3.201,-3.201,3.201;                         71P    192
128,1,8,1,2,0,1,0,0,1,0.0999999999999999,0.0999999999999999,          73P    193
0.433333333333333,0.433333333333333,-3.14159265358979,                73P    194
-3.14159265358979,-3.14159265358979,-1.5707963267949,                 73P    195
-1.5707963267949,0.,0.,1.5707963267949,1.5707963267949,               73P    196
3.14159265358979,3.14159265358979,3.14159265358979,1.,1.,             73P    197
0.707106781186548,0.707106781186548,1.,1.,0.707106781186548,          73P    198
0.707106781186548,1.,1.,0.707106781186548,0.707106781186548,1.,       73P    199
1.,0.707106781186548,0.707106781186548,1.,1.,-27.5752882583229,       73P    200
12.4945522454196,-10.9301594962575,-27.5752882583229,                 73P    201
12.4945522454196,-0.930159496257481,-27.5752882583229,                73P    202
42.4945522454196,-10.9301594962575,-27.5752882583229,                 73P    203
42.4945522454196,-0.930159496257481,-57.5752882583229,                73P    204
42.4945522454196,-10.9301594962575,-57.5752882583229,                 73P    205
42.4945522454196,-0.930159496257486,-87.5752882583229,                73P    206
42.4945522454196,-10.9301594962575,-87.5752882583229,                 73P    207
42.4945522454196,-0.93015949625749,-87.5752882583229,                 73P    208
12.4945522454196,-10.9301594962575,-87.5752882583229,                 73P    209
12.4945522454196,-0.93015949625749,-87.5752882583229,                 73P    210
-17.5054477545804,-10.9301594962575,-87.5752882583229,                73P    211
-17.5054477545804,-0.93015949625749,-57.5752882583229,                73P    212
-17.5054477545804,-10.9301594962575,-57.5752882583229,                73P    213
-17.5054477545804,-0.930159496257486,-27.5752882583229,               73P    214
-17.5054477545804,-10.9301594962575,-27.5752882583229,                73P    215
-17.5054477545804,-0.930159496257481,-27.5752882583229,               73P    216
12.4945522454196,-10.9301594962575,-27.5752882583229,                 73P    217
12.4945522454196,-0.930159496257481,0.0999999999999999,               73P    218
0.433333333333333,-3.14159265358979,3.14159265358979;                 73P    219
128,1,1,1,1,0,0,1,0,0,-3.501,-3.501,3.501,3.501,-3.501,-3.501,        75P    220
3.501,3.501,1.,1.,1.,1.,-92.5852882583229,-22.5154477545804,          75P    221
-6.93015949625749,-22.5652882583229,-22.5154477545804,                75P    222
-6.93015949625748,-92.5852882583229,47.5045522454196,                 75P    223
-6.93015949625749,-22.5652882583229,47.5045522454196,                 75P    224
-6.93015949625748,-3.501,3.501,-3.501,3.501;                          75P    225
128,1,8,1,2,0,1,0,0,1,-7.06175852374658D-17,                          77P    226
-7.06175852374658D-17,0.260869565217391,0.260869565217391,            77P    227
-3.14159265358979,-3.14159265358979,-3.14159265358979,                77P    228
-1.5707963267949,-1.5707963267949,0.,0.,1.5707963267949,              77P    229
1.5707963267949,3.14159265358979,3.14159265358979,                    77P    230
3.14159265358979,1.,1.,0.707106781186548,0.707106781186548,1.,        77P    231
1.,0.707106781186548,0.707106781186548,1.,1.,0.707106781186548,       77P    232
0.707106781186548,1.,1.,0.707106781186548,0.707106781186548,1.,       77P    233
1.,-46.0752882583229,12.4945522454196,-13.9301594962575,              77P    234
-46.0752882583229,12.4945522454196,-10.9301594962575,                 77P    235
-46.0752882583229,23.9945522454196,-13.9301594962575,                 77P    236
-46.0752882583229,23.9945522454196,-10.9301594962575,                 77P    237
-57.5752882583229,23.9945522454196,-13.9301594962575,                 77P    238
-57.5752882583229,23.9945522454196,-10.9301594962575,                 77P    239
-69.0752882583229,23.9945522454196,-13.9301594962575,                 77P    240
-69.0752882583229,23.9945522454196,-10.9301594962575,                 77P    241
-69.0752882583229,12.4945522454196,-13.9301594962575,                 77P    242
-69.0752882583229,12.4945522454196,-10.9301594962575,                 77P    243
-69.0752882583229,0.994552245419593,-13.9301594962575,                77P    244
-69.0752882583229,0.994552245419593,-10.9301594962575,                77P    245
-57.5752882583229,0.994552245419591,-13.9301594962575,                77P    246
-57.5752882583229,0.994552245419591,-10.9301594962575,                77P    247
-46.0752882583229,0.994552245419593,-13.9301594962575,                77P    248
-46.0752882583229,0.994552245419593,-10.9301594962575,                77P    249
-46.0752882583229,12.4945522454196,-13.9301594962575,                 77P    250
-46.0752882583229,12.4945522454196,-10.9301594962575,                 77P    251
-7.06175852374658D-17,0.260869565217391,-3.14159265358979,            77P    252
3.14159265358979;                                                     77P    253
128,1,8,1,2,0,1,0,0,1,-4.41795147099686D-18,                          79P    254
-4.41795147099686D-18,0.2,0.2,-3.14159265358979,                      79P    255
-3.14159265358979,-3.14159265358979,-1.5707963267949,                 79P    256
-1.5707963267949,0.,0.,1.5707963267949,1.5707963267949,               79P    257
3.14159265358979,3.14159265358979,3.14159265358979,1.,1.,             79P    258
0.707106781186548,0.707106781186548,1.,1.,0.707106781186548,          79P    259
0.707106781186548,1.,1.,0.707106781186548,0.707106781186548,1.,       79P    260
1.,0.707106781186548,0.707106781186548,1.,1.,-22.5752882583229,       79P    261
12.4945522454196,-6.93015949625748,-22.5752882583229,                 79P    262
12.4945522454196,-13.9301594962575,-22.5752882583229,                 79P    263
47.4945522454196,-6.93015949625748,-22.5752882583229,                 79P    264
47.4945522454196,-13.9301594962575,-57.5752882583229,                 79P    265
47.4945522454196,-6.93015949625748,-57.5752882583229,                 79P    266
47.4945522454196,-13.9301594962575,-92.5752882583229,                 79P    267
47.4945522454196,-6.93015949625749,-92.5752882583229,                 79P    268
47.4945522454196,-13.9301594962575,-92.5752882583229,                 79P    269
12.4945522454196,-6.93015949625749,-92.5752882583229,                 79P    270
12.4945522454196,-13.9301594962575,-92.5752882583229,                 79P    271
-22.5054477545804,-6.93015949625749,-92.5752882583229,                79P    272
-22.5054477545804,-13.9301594962575,-57.5752882583229,                79P    273
-22.5054477545804,-6.93015949625748,-57.5752882583229,                79P    274
-22.5054477545804,-13.9301594962575,-22.5752882583229,                79P    275
-22.5054477545804,-6.93015949625748,-22.5752882583229,                79P    276
-22.5054477545804,-13.9301594962575,-22.5752882583229,                79P    277
12.4945522454196,-6.93015949625748,-22.5752882583229,                 79P    278
12.4945522454196,-13.9301594962575,-4.41795147099686D-18,0.2,         79P    279
-3.14159265358979,3.14159265358979;                                   79P    280
128,1,1,1,1,0,0,1,0,0,-3.501,-3.501,3.501,3.501,-3.501,-3.501,        81P    281
3.501,3.501,1.,1.,1.,1.,-22.5652882583229,-22.5154477545804,          81P    282
-13.9301594962575,-92.5852882583229,-22.5154477545804,                81P    283
-13.9301594962575,-22.5652882583229,47.5045522454196,                 81P    284
-13.9301594962575,-92.5852882583229,47.5045522454196,                 81P    285
-13.9301594962575,-3.501,3.501,-3.501,3.501;                          81P    286
128,1,1,1,1,0,0,1,0,0,-3.001,-3.001,3.001,3.001,-3.001,-3.001,        83P    287
3.001,3.001,1.,1.,1.,1.,-87.5852882583229,-17.5154477545804,          83P    288
-10.9301594962575,-27.5652882583229,-17.5154477545804,                83P    289
-10.9301594962575,-87.5852882583229,42.5045522454196,                 83P    290
-10.9301594962575,-27.5652882583229,42.5045522454196,                 83P    291
-10.9301594962575,-3.001,3.001,-3.001,3.001;                          83P    292
502,8,-25.5752882583229,12.4945522454196,-0.930159496257481,          85P    293
-25.5752882583229,12.4945522454196,-6.93015949625748,                 85P    294
-27.5752882583229,12.4945522454196,-0.930159496257482,                85P    295
-27.5752882583229,12.4945522454196,-10.9301594962575,                 85P    296
-22.5752882583229,12.4945522454196,-6.93015949625748,                 85P    297
-46.0752882583229,12.4945522454196,-10.9301594962575,                 85P    298
-46.0752882583229,12.4945522454196,-13.9301594962575,                 85P    299
-22.5752882583229,12.4945522454196,-13.9301594962575;                 85P    300
504,12,45,85,1,85,1,47,85,1,85,2,49,85,2,85,2,51,85,3,85,3,53,        87P    301
85,3,85,4,55,85,4,85,4,57,85,5,85,5,59,85,6,85,6,61,85,6,85,7,        87P    302
63,85,7,85,7,65,85,5,85,8,67,85,8,85,8;                               87P    303
406,1,3Hlid;                                                          89P    304
314,62.7450980392157,62.7450980392157,62.7450980392157,13HSteel       91P    305
- Satin;                                                              91P    306
S      1G      3D     92P    306                                        T      1
